<?xml version="1.0"?>
<svg xmlns="http://www.w3.org/2000/svg" xmlns:xlink="http://www.w3.org/1999/xlink" width="1920" zoomAndPan="magnify" viewBox="0 0 1440 809.999993" height="1080" preserveAspectRatio="xMidYMid meet" version="1.2" style="background-color:transparent;">
  <defs>
    <clipPath id="e536de9c52">
      <path d="M 569 96.105469 L 705 96.105469 L 705 342 L 569 342 Z M 569 96.105469 "/>
    </clipPath>
  </defs>
  <g id="8c9896e342">
    <rect x="0" width="1440" y="0" height="809.999993" style="fill:none;fill-opacity:1;stroke:none;" fill="none"/>
    <rect x="0" width="1440" y="0" height="809.999993" style="fill:none;fill-opacity:1;stroke:none;" fill="none"/>
    <path style=" stroke:none;fill-rule:nonzero;fill:#3abeff;fill-opacity:1;" d="M 566.363281 393.1875 C 568.351562 346.078125 546.878906 305.839844 516.578125 295.75 C 513.066406 291.148438 510.148438 286.199219 507.820312 280.902344 C 505.390625 275.273438 503.671875 269.4375 502.671875 263.390625 C 501.675781 257.34375 501.417969 251.261719 501.910156 245.152344 C 497.558594 249.1875 493.867188 253.753906 490.839844 258.859375 C 481.570312 274.515625 481.824219 290.253906 482.414062 297.363281 C 455.257812 309.023438 434.515625 344.617188 432.703125 387.539062 C 430.4375 441.113281 458.523438 485.8125 495.433594 487.371094 C 532.339844 488.933594 564.097656 446.765625 566.363281 393.1875 Z M 566.363281 393.1875 "/>
    <path style=" stroke:none;fill-rule:nonzero;fill:#3abeff;fill-opacity:1;" d="M 965.34375 311.324219 C 966.085938 308.019531 971.003906 284.332031 955.539062 265.9375 C 952.902344 262.847656 949.921875 260.132812 946.597656 257.792969 C 943.277344 255.457031 939.714844 253.566406 935.914062 252.128906 C 936.757812 257.609375 937.15625 263.125 937.113281 268.671875 C 937.027344 275.921875 936.210938 283.085938 934.660156 290.171875 C 933.113281 297.253906 930.863281 304.105469 927.914062 310.730469 C 903.792969 319.804688 883.601562 346.277344 878.015625 380.046875 C 870.492188 425.539062 892.316406 467.035156 926.761719 472.730469 C 961.207031 478.429688 995.230469 446.167969 1002.753906 400.675781 C 1009.414062 360.40625 993.074219 323.273438 965.34375 311.324219 Z M 965.34375 311.324219 "/>
    <path style=" stroke:none;fill-rule:nonzero;fill:#3abeff;fill-opacity:1;" d="M 818.460938 341.011719 C 855.253906 337.679688 881.15625 291.683594 876.316406 238.277344 C 872.410156 195.132812 849.636719 160.359375 821.632812 150.339844 C 822.199219 147.914062 826.84375 126.492188 812.574219 110.398438 C 809.902344 107.441406 806.871094 104.917969 803.480469 102.824219 C 800.089844 100.734375 796.476562 99.15625 792.636719 98.097656 C 794.773438 106.582031 797.136719 121.507812 792.042969 138.292969 C 790.679688 142.78125 788.882812 147.09375 786.660156 151.222656 C 757.707031 163.527344 738.902344 204.164062 743.085938 250.34375 C 747.921875 303.753906 781.671875 344.34375 818.460938 341.011719 Z M 818.460938 341.011719 "/>
    <g clip-rule="nonzero" clip-path="url(#e536de9c52)">
      <path style=" stroke:none;fill-rule:nonzero;fill:#3abeff;fill-opacity:1;" d="M 628.234375 341.003906 C 665.019531 344.371094 698.804688 303.8125 703.695312 250.410156 C 707.988281 203.503906 688.558594 162.292969 658.839844 150.679688 C 656.902344 146.4375 655.253906 142.082031 653.898438 137.617188 C 652.542969 133.15625 651.488281 128.621094 650.734375 124.015625 C 649.984375 119.410156 649.542969 114.777344 649.40625 110.113281 C 649.273438 105.449219 649.449219 100.796875 649.9375 96.160156 C 646.429688 98.277344 643.199219 100.757812 640.246094 103.597656 C 637.292969 106.441406 634.6875 109.570312 632.433594 112.996094 C 621.988281 128.964844 623.3125 145.59375 623.941406 150.808594 C 596.527344 161.402344 574.363281 195.746094 570.472656 238.210938 C 565.585938 291.613281 591.445312 337.636719 628.234375 341.003906 Z M 628.234375 341.003906 "/>
    </g>
    <path style=" stroke:none;fill-rule:nonzero;fill:#3abeff;fill-opacity:1;" d="M 902.792969 528.195312 C 832.582031 473.691406 826.261719 419.300781 783.824219 391.222656 C 757.074219 373.527344 730.160156 373.339844 721.269531 372.503906 C 706.523438 371.117188 665.703125 367.273438 632.429688 389.074219 C 596.257812 412.769531 609.921875 439.957031 568.183594 492.996094 C 534.507812 535.792969 513.664062 533.273438 503.398438 565.097656 C 493.851562 594.695312 502.519531 634.117188 523.5625 660.792969 C 557.648438 703.992188 631.648438 657.777344 720.109375 657.777344 C 809.550781 657.777344 885.078125 713.621094 919.101562 672.519531 C 935.015625 653.296875 944.765625 612.617188 938.429688 581.128906 C 932.164062 549.980469 910.761719 534.382812 902.792969 528.195312 Z M 902.792969 528.195312 "/>
  </g>
</svg>
