<svg xmlns="http://www.w3.org/2000/svg" xmlns:xlink="http://www.w3.org/1999/xlink" width="1920" zoomAndPan="magnify" viewBox="0 0 1440 809.999993" height="1080" preserveAspectRatio="xMidYMid meet" version="1.2"><defs><clipPath id="73e766dd66"><path d="M 486.699219 82 L 950 82 L 950 753 L 486.699219 753 Z M 486.699219 82 "/></clipPath></defs><g id="c8d722fc44"><g clip-rule="nonzero" clip-path="url(#73e766dd66)"><path style=" stroke:none;fill-rule:nonzero;fill:#3abeff;fill-opacity:1;" d="M 910.390625 184.339844 C 909.527344 187.816406 908.054688 189.121094 906.105469 194.121094 C 904.144531 199.117188 899.960938 213.894531 906.265625 220.421875 C 912.566406 226.9375 921.699219 226.066406 927.777344 223.242188 C 933.863281 220.421875 941.472656 210.425781 947.335938 193.6875 C 953.207031 176.949219 945.167969 169.785156 938.644531 172.824219 C 932.125 175.863281 928.214844 179.339844 914.523438 180.429688 C 914.523438 180.429688 911.261719 180.867188 910.390625 184.339844 Z M 872.363281 136.09375 C 869.316406 144.570312 869.75 164.5625 874.316406 166.507812 C 878.882812 168.453125 883.441406 162.171875 891.269531 163.476562 C 899.089844 164.777344 898.003906 167.824219 904.527344 165.867188 C 911.046875 163.914062 921.042969 158.261719 928.214844 130.664062 C 935.386719 103.058594 915.828125 98.5 911.480469 100.234375 C 907.136719 101.976562 898.660156 115.011719 886.054688 123.058594 C 886.054688 123.058594 875.402344 127.617188 872.363281 136.09375 Z M 823.460938 123.492188 C 826.066406 130.445312 828.890625 145.875 831.066406 153.222656 C 833.242188 160.5625 838.457031 159.78125 841.496094 156.085938 C 844.539062 152.390625 852.144531 133.269531 859.96875 122.402344 C 867.796875 111.535156 863.445312 102.625 859.96875 93.933594 C 856.496094 85.238281 853.449219 81.113281 847.363281 82.632812 C 841.277344 84.152344 821.285156 100.234375 819.765625 113.710938 C 819.765625 113.710938 820.855469 116.53125 823.460938 123.492188 Z M 757.390625 175.863281 C 758.261719 181.300781 768.914062 183.691406 777.035156 179.558594 C 785.160156 175.429688 790.210938 180.210938 794.554688 176.949219 C 798.902344 173.695312 799.121094 153.695312 793.472656 141.53125 C 787.820312 129.359375 779.777344 124.578125 774.777344 124.792969 C 769.777344 125.011719 757.832031 141.09375 756.304688 161.738281 C 756.304688 161.738281 756.527344 170.433594 757.390625 175.863281 Z M 868.773438 280.839844 C 886.027344 278.371094 889.636719 269.425781 878.226562 256.382812 C 866.820312 243.347656 847.582031 232.59375 844.324219 221.507812 C 841.0625 210.425781 837.152344 194.449219 822.804688 191.511719 C 808.464844 188.578125 784.996094 198.359375 780.429688 206.835938 C 775.863281 215.3125 755.980469 214.335938 753.046875 222.484375 C 750.113281 230.632812 749.457031 239.109375 753.046875 243.347656 C 756.628906 247.589844 809.445312 289.308594 868.773438 280.839844 Z M 910.390625 457.945312 C 909.527344 461.414062 908.054688 462.71875 906.105469 467.726562 C 904.144531 472.722656 899.960938 487.503906 906.265625 494.019531 C 912.566406 500.539062 921.699219 499.667969 927.777344 496.84375 C 933.863281 494.019531 941.472656 484.023438 947.335938 467.285156 C 953.207031 450.554688 945.167969 443.378906 938.644531 446.421875 C 932.125 449.46875 928.214844 452.945312 914.523438 454.027344 C 914.523438 454.027344 911.261719 454.464844 910.390625 457.945312 Z M 872.363281 409.691406 C 869.316406 418.167969 869.75 438.167969 874.316406 440.105469 C 878.882812 442.050781 883.441406 435.773438 891.269531 437.078125 C 899.089844 438.382812 898.003906 441.421875 904.527344 439.46875 C 911.046875 437.511719 921.042969 431.859375 928.214844 404.261719 C 935.386719 376.664062 915.828125 372.097656 911.480469 373.832031 C 907.136719 375.574219 898.660156 388.613281 886.054688 396.65625 C 886.054688 396.65625 875.402344 401.222656 872.363281 409.691406 Z M 823.460938 397.085938 C 826.066406 404.042969 828.890625 419.472656 831.066406 426.820312 C 833.242188 434.160156 838.457031 433.382812 841.496094 429.691406 C 844.539062 425.996094 852.144531 406.867188 859.96875 396 C 867.796875 385.140625 863.445312 376.222656 859.96875 367.53125 C 856.496094 358.839844 853.449219 354.710938 847.363281 356.230469 C 841.277344 357.75 821.285156 373.832031 819.765625 387.308594 C 819.765625 387.308594 820.855469 390.136719 823.460938 397.085938 Z M 757.390625 449.46875 C 758.261719 454.898438 768.914062 457.289062 777.035156 453.160156 C 785.160156 449.027344 790.210938 453.808594 794.554688 450.554688 C 798.902344 447.292969 799.121094 427.300781 793.472656 415.128906 C 787.820312 402.957031 779.777344 398.175781 774.777344 398.390625 C 769.777344 398.609375 757.832031 414.695312 756.304688 435.335938 C 756.304688 435.335938 756.527344 444.03125 757.390625 449.46875 Z M 868.773438 554.4375 C 886.027344 551.96875 889.636719 543.027344 878.226562 529.988281 C 866.820312 516.945312 847.582031 506.191406 844.324219 495.109375 C 841.0625 484.023438 837.152344 468.046875 822.804688 465.109375 C 808.464844 462.183594 784.996094 471.957031 780.429688 480.433594 C 775.863281 488.910156 755.980469 487.933594 753.046875 496.082031 C 750.113281 504.234375 749.457031 512.710938 753.046875 516.945312 C 756.628906 521.1875 809.445312 562.914062 868.773438 554.4375 Z M 561.71875 590.34375 C 566.066406 595.558594 575.191406 605.988281 584.972656 607.515625 C 594.753906 609.035156 601.488281 598.167969 602.574219 594.039062 C 603.664062 589.90625 585.84375 571.21875 575.191406 561.875 C 564.542969 552.527344 558.675781 555.574219 552.15625 558.398438 C 545.636719 561.222656 545.203125 570.785156 552.15625 578.632812 C 552.15625 578.632812 557.375 585.128906 561.71875 590.34375 Z M 513.253906 644.566406 C 518.46875 648.546875 538.355469 647.171875 545.527344 650.105469 C 552.699219 653.042969 566.066406 644.566406 566.714844 635.113281 C 567.371094 625.660156 543.574219 607.730469 528.902344 595.015625 C 514.230469 582.300781 509.339844 588.824219 500.214844 597.621094 C 491.085938 606.425781 494.023438 623.378906 508.039062 640.59375 C 508.039062 640.59375 508.039062 640.59375 513.253906 644.566406 Z M 486.945312 667.882812 C 486.699219 672.289062 487.414062 676.707031 489.0625 680.800781 C 497.746094 702.355469 508.972656 707.855469 517.601562 707.046875 C 526.945312 706.183594 545.417969 702.125 548.898438 691.109375 C 552.375 680.105469 548.242188 666.1875 540.636719 661.191406 C 533.03125 656.191406 511.53125 654.289062 501.519531 656.738281 C 492.171875 659.015625 487.28125 662.0625 486.957031 667.714844 Z M 636.070312 620.714844 C 642.675781 623.152344 663.535156 625.929688 668.402344 615.84375 C 673.273438 605.765625 661.039062 579.695312 641.632812 578.648438 C 635.550781 578.3125 629.425781 587.695312 626.875 605.144531 C 625.910156 611.761719 629.621094 618.277344 635.871094 620.640625 C 635.9375 620.667969 636.003906 620.691406 636.070312 620.714844 Z M 589.320312 748.992188 C 598.449219 747.253906 645.390625 716.394531 662.777344 705.96875 C 680.164062 695.53125 681.03125 669.019531 672.339844 660.757812 C 663.644531 652.496094 647.5625 667.277344 634.089844 652.9375 C 620.617188 638.589844 607.140625 636.414062 596.273438 648.152344 C 585.40625 659.886719 591.925781 668.148438 579.757812 691.621094 C 567.585938 715.09375 547.464844 732.546875 560.195312 746.382812 C 570.195312 757.25 580.191406 750.734375 589.320312 748.992188 Z M 561.71875 306.367188 C 566.066406 311.582031 575.191406 322.015625 584.972656 323.535156 C 594.753906 325.054688 601.488281 314.1875 602.574219 310.058594 C 603.664062 305.933594 585.84375 287.246094 575.191406 277.898438 C 564.542969 268.550781 558.675781 271.59375 552.15625 274.417969 C 545.636719 277.242188 545.203125 286.804688 552.15625 294.660156 C 552.15625 294.660156 557.375 301.152344 561.71875 306.367188 Z M 513.253906 360.585938 C 518.46875 364.566406 538.355469 363.199219 545.527344 366.128906 C 552.699219 369.0625 566.066406 360.585938 566.714844 351.136719 C 567.371094 341.683594 543.574219 323.75 528.902344 311.039062 C 514.230469 298.328125 509.339844 304.847656 500.214844 313.644531 C 491.085938 322.449219 494.023438 339.402344 508.039062 356.613281 C 508.039062 356.613281 508.039062 356.613281 513.253906 360.585938 Z M 486.945312 383.90625 C 486.699219 388.308594 487.414062 392.730469 489.0625 396.820312 C 497.746094 418.378906 508.972656 423.878906 517.601562 423.074219 C 526.945312 422.203125 545.417969 418.144531 548.898438 407.140625 C 552.375 396.125 548.242188 382.210938 540.636719 377.214844 C 533.03125 372.214844 511.53125 370.320312 501.519531 372.757812 C 492.171875 375.046875 487.28125 378.085938 486.957031 383.738281 Z M 636.070312 336.742188 C 642.675781 339.171875 663.535156 341.953125 668.402344 331.867188 C 673.273438 321.785156 661.039062 295.714844 641.632812 294.667969 C 635.550781 294.34375 629.425781 303.71875 626.875 321.167969 C 625.910156 327.78125 629.621094 334.300781 635.871094 336.660156 C 635.9375 336.691406 636.003906 336.710938 636.070312 336.742188 Z M 560.195312 462.414062 C 547.464844 448.566406 567.585938 431.113281 579.757812 407.640625 C 591.925781 384.171875 585.40625 375.910156 596.273438 364.179688 C 607.140625 352.4375 620.617188 354.613281 634.089844 368.960938 C 647.5625 383.300781 663.644531 368.519531 672.339844 376.78125 C 681.03125 385.042969 680.164062 411.550781 662.777344 421.988281 C 645.390625 432.417969 598.449219 463.277344 589.320312 465.019531 C 580.191406 466.753906 570.195312 473.273438 560.195312 462.414062 "/></g></g></svg>