<svg xmlns="http://www.w3.org/2000/svg" xmlns:xlink="http://www.w3.org/1999/xlink" width="1920" zoomAndPan="magnify" viewBox="0 0 1440 809.999993" height="1080" preserveAspectRatio="xMidYMid meet" version="1.2"><defs><clipPath id="7ca0a7e749"><path d="M 330 128.390625 L 1111.34375 128.390625 L 1111.34375 680 L 330 680 Z M 330 128.390625 "/></clipPath></defs><g id="703ffdd53b"><g clip-rule="nonzero" clip-path="url(#7ca0a7e749)"><path style=" stroke:none;fill-rule:evenodd;fill:#3abeff;fill-opacity:1;" d="M 932.316406 479.269531 C 947.386719 484.25 964.566406 467.867188 981.152344 490.855469 C 992.394531 506.441406 987.257812 532.113281 1002.636719 553.382812 C 1018.035156 574.652344 1032.183594 581.429688 1025.34375 616.675781 C 1018.503906 651.90625 987.335938 676.753906 967.4375 678.96875 C 947.527344 681.1875 942.140625 660.449219 928.023438 654.140625 C 913.890625 647.832031 903.007812 659.667969 889.28125 657.605469 C 875.554688 655.546875 868.277344 638.585938 857.296875 634.292969 C 846.320312 629.996094 840.277344 641.351562 818.867188 637.960938 C 800.640625 635.074219 791.898438 623.765625 781.464844 601.621094 C 771.609375 580.726562 769.285156 550.449219 784.277344 530.566406 C 793.878906 517.824219 805.671875 521.058594 835.667969 497.273438 C 865.667969 473.507812 873.148438 452.707031 894.605469 454.3125 C 916.015625 455.9375 917.25 474.273438 932.316406 479.269531 Z M 1082.484375 444.210938 C 1081.984375 436.167969 1092.011719 428.484375 1092.652344 427.75 C 1097.945312 421.863281 1111.203125 404.234375 1111.1875 415.007812 C 1111.125 454.390625 1107.75 456.234375 1105.050781 454.515625 C 1104.207031 453.984375 1097.335938 445.898438 1091.980469 446.785156 C 1106.550781 455.296875 1109.90625 483.359375 1103.160156 509.144531 C 1093.929688 544.386719 1066.304688 560.582031 1046.800781 554.210938 C 1030.699219 548.949219 1016.816406 529.039062 1018.738281 501.585938 C 1020.019531 483.171875 1039.898438 458.4375 1071.320312 446.414062 C 1075.410156 444.851562 1079.125 444.148438 1082.484375 444.210938 Z M 1004.636719 338.628906 C 1009.089844 327.804688 1023.050781 304.476562 1025.90625 300.898438 C 1030.824219 294.746094 1039.398438 307.644531 1040.945312 325.886719 C 1043.242188 352.886719 1029.03125 341.207031 1021.957031 339.285156 C 1021.019531 339.035156 1019.894531 339.894531 1018.363281 340.988281 C 1032.027344 348.140625 1041.992188 367.347656 1044.457031 399.03125 C 1047.347656 436.074219 1018.816406 465.464844 998.953125 461.777344 C 968.703125 456.1875 951.402344 434.417969 960.257812 401.265625 C 968.078125 372.109375 988.148438 342.78125 1004.636719 338.628906 Z M 895.808594 315.40625 C 895.136719 315.5 894.433594 315.609375 893.699219 315.71875 C 899.351562 301.023438 916.328125 273.492188 920.714844 276.132812 C 927.085938 279.941406 927.085938 313.550781 923.433594 313.410156 C 919.886719 313.269531 917.125 313.222656 914.71875 313.253906 C 927.835938 317.75 936.035156 336.160156 940.390625 373.375 C 945.375 415.867188 920.871094 432.824219 894.308594 426.515625 C 860.234375 418.429688 849.050781 404.140625 858.09375 368.800781 C 864.980469 341.90625 881.160156 322.730469 895.808594 315.40625 Z M 798.113281 373.640625 C 786.820312 370.4375 771.875 379.777344 779.464844 363.378906 C 780.324219 361.523438 790.382812 344.796875 796.894531 342.671875 C 800.53125 341.488281 798.691406 344.390625 805.359375 373.625 C 805.875 373.71875 806.390625 373.828125 806.902344 373.9375 C 822.363281 377.699219 827.90625 398.390625 831.046875 428.9375 C 834.171875 459.484375 819.742188 472.054688 800.765625 476.316406 C 760.414062 485.390625 753.074219 445.179688 762.632812 414.570312 C 770.441406 389.585938 784.714844 375.796875 798.113281 373.640625 Z M 504.277344 327.511719 C 519.9375 324.964844 524.0625 307.050781 545.503906 308.847656 C 566.929688 310.644531 571.019531 332.367188 596.878906 360.601562 C 622.726562 388.835938 634.875 387.507812 642.339844 401.609375 C 653.988281 423.628906 646.867188 453.144531 633.84375 472.210938 C 620.023438 492.433594 609.59375 502.195312 591.148438 502.164062 C 569.472656 502.117188 565.304688 489.949219 553.78125 492.449219 C 542.253906 494.949219 532.386719 510.546875 518.503906 510.40625 C 504.621094 510.25 495.75 496.851562 480.804688 500.851562 C 465.859375 504.832031 457.253906 524.460938 437.9375 519.121094 C 418.636719 513.78125 391.808594 484.3125 390.636719 448.425781 C 389.464844 412.554688 404.519531 408.105469 423.085938 389.539062 C 441.65625 370.96875 440.65625 344.8125 454.226562 331.210938 C 474.246094 311.144531 488.613281 330.054688 504.277344 327.511719 Z M 361.574219 269.089844 C 364.902344 269.558594 368.445312 270.839844 372.226562 273.023438 C 401.347656 289.890625 417.042969 317.453125 415.402344 335.832031 C 412.953125 363.253906 396.085938 380.699219 379.363281 383.355469 C 359.105469 386.554688 334.386719 366.191406 330.859375 329.914062 C 328.28125 303.382812 336.042969 276.210938 351.800781 270.121094 C 346.644531 268.402344 338.570312 275.289062 337.652344 275.679688 C 334.714844 276.945312 331.667969 274.585938 337.855469 235.6875 C 339.539062 225.050781 349.847656 244.554688 354.125 251.207031 C 354.65625 252.050781 363.339844 261.234375 361.574219 269.089844 Z M 455.164062 177.1875 C 470.796875 183.902344 485.957031 216.039062 489.035156 246.085938 C 492.53125 280.222656 471.996094 298.964844 441.234375 299.695312 C 421.027344 300.179688 397.523438 266.652344 406.253906 230.53125 C 413.71875 199.644531 426.601562 182.261719 441.21875 177.34375 C 439.890625 176.015625 438.921875 174.984375 437.953125 175.09375 C 430.660156 175.859375 414.78125 185.152344 421.324219 158.855469 C 425.757812 141.097656 436.265625 129.714844 440.140625 136.570312 C 442.40625 140.550781 452.492188 165.804688 455.164062 177.1875 Z M 566.304688 171.503906 C 579.609375 181.042969 592.539062 202.5625 595.070312 230.1875 C 598.378906 266.527344 585.074219 278.847656 550.15625 281.441406 C 522.9375 283.457031 501.433594 262.828125 513.082031 221.664062 C 523.296875 185.605469 534.304688 168.738281 547.96875 166.367188 C 545.613281 165.945312 542.878906 165.554688 539.351562 165.132812 C 535.710938 164.695312 547.035156 128.699219 556.683594 128.558594 C 561.824219 128.480469 565.101562 156.730469 568.351562 172.144531 C 567.632812 171.925781 566.945312 171.707031 566.304688 171.503906 Z M 653.519531 244.492188 C 666.40625 248.757812 678.320312 264.625 682.066406 290.546875 C 686.644531 322.277344 673.042969 360.820312 634.640625 345.46875 C 616.574219 338.253906 604.3125 323.542969 612.246094 293.871094 C 620.179688 264.203125 628.941406 244.664062 644.808594 243.402344 C 645.324219 243.355469 645.851562 243.339844 646.382812 243.339844 C 657.613281 215.527344 656.238281 212.355469 659.660156 214.105469 C 665.75 217.242188 673.027344 235.34375 673.574219 237.308594 C 678.460938 254.722656 665.1875 243.121094 653.519531 244.492188 Z M 653.519531 244.492188 "/></g></g></svg>